# xmcd CD database file generated by LOLA_Freedb v0.9beta0
# 
# Track frame offsets:
#      150
#      14437
#      31126
#      51133
#      74819
#      91577
#      106870
#      116145
#      130965
#      157124
#      176037
#      190681
#      208073
#      226542
#      246887
#      267273
#      284066
#      301828
#      320814
#      332111
#      345995
# 
# Disc length: 4799 seconds
# 
# Revision: 1 
# Processed by: cddbd v1.5.2PL0 Copyright (c) Steve Scherf et al.
# Submitted via: LOLA_Freedb v0.9beta0
# 
DISCID=3212bd15
DTITLE=Various Artist - One way Wind [CD1)
DYEAR=1900
DGENRE=
TTITLE0=Left Side - Cunfusion in my mind
TTITLE1=The Cats - Lea
TTITLE2=Alles - Murdock 9-6128
TTITLE3=The Cats - Where have I been wrong
TTITLE4=Alan Decker - Barbara
TTITLE5=BZN - Sweet silver Anny
TTITLE6=Fools - Going back in time
TTITLE7=Maddog - My morning sun
TTITLE8=Piet Veerman - Rollin' on a river
TTITLE9=BZN - Pearlydumm
TTITLE10=Maribelle - Marionette
TTITLE11=Canyon - Mooi Volendam
TTITLE12=Next one - Cats forever
TTITLE13=Piet Veerman - Sailin' home
TTITLE14=Anny Schilder - You are my hero
TTITLE15=Tol and Tol - Eleni
TTITLE16=Specs Hildebrand - So long ago
TTITLE17=Jan Smit - Ik zing dit lied voor jou alleen
TTITLE18=Jan Muhren - Sail down to Australia
TTITLE19=Jan Smit - Laura
TTITLE20=Nick and Simon - Steeds weer
EXTD=
EXTT0=
EXTT1=
EXTT2=
EXTT3=
EXTT4=
EXTT5=
EXTT6=
EXTT7=
EXTT8=
EXTT9=
EXTT10=
EXTT11=
EXTT12=
EXTT13=
EXTT14=
EXTT15=
EXTT16=
EXTT17=
EXTT18=
EXTT19=
EXTT20=
PLAYORDER=
